HIERARCHY
ROOT Hips
{
	OFFSET 0.000000 100.481300 0.000000
	CHANNELS 6 Xposition Yposition Zposition Xrotation Yrotation Zrotation
	JOINT Spine
	{
		OFFSET -0.279200 12.230698 -2.892100
		CHANNELS 3 Xrotation Yrotation Zrotation
		JOINT Spine1
		{
			OFFSET -0.325700 14.269203 -3.374200
			CHANNELS 3 Xrotation Yrotation Zrotation
			JOINT Spine2
			{
				OFFSET -0.372300 16.307602 -0.352600
				CHANNELS 3 Xrotation Yrotation Zrotation
				JOINT Neck
				{
					OFFSET -0.418800 17.814194 8.416900
					CHANNELS 3 Xrotation Yrotation Zrotation
					JOINT Head
					{
						OFFSET 0.000000 7.031097 3.806800
						CHANNELS 3 Xrotation Yrotation Zrotation
						JOINT HeadTop_End
						{
							OFFSET 0.000000 24.646606 12.978600
							CHANNELS 3 Xrotation Yrotation Zrotation
							End Site
							{
								OFFSET 0.000000 27.854965 0.000000
							}
						}
					}
				}
				JOINT LeftShoulder
				{
					OFFSET 16.952999 14.495407 -7.737500
					CHANNELS 3 Xrotation Yrotation Zrotation
					JOINT LeftArm
					{
						OFFSET 9.308998 -2.777710 0.208600
						CHANNELS 3 Xrotation Yrotation Zrotation
						JOINT LeftForeArm
						{
							OFFSET 29.972298 0.000000 0.000000
							CHANNELS 3 Xrotation Yrotation Zrotation
							JOINT LeftHand
							{
								OFFSET 26.026505 0.000000 0.000000
								CHANNELS 3 Xrotation Yrotation Zrotation
								JOINT LeftHandThumb1
								{
									OFFSET 12.240501 -7.147949 9.207150
									CHANNELS 3 Xrotation Yrotation Zrotation
									JOINT LeftHandThumb2
									{
										OFFSET 4.138618 -2.389435 2.389433
										CHANNELS 3 Xrotation Yrotation Zrotation
										JOINT LeftHandThumb3
										{
											OFFSET 2.726913 -1.574387 1.574386
											CHANNELS 3 Xrotation Yrotation Zrotation
											JOINT LeftHandThumb4
											{
												OFFSET 3.941010 -2.275345 2.275342
												CHANNELS 3 Xrotation Yrotation Zrotation
												End Site
												{
													OFFSET -0.005798 5.087799 0.009903
												}
											}
										}
									}
								}
								JOINT LeftHandIndex1
								{
									OFFSET 24.424698 -1.985611 5.953459
									CHANNELS 3 Xrotation Yrotation Zrotation
									JOINT LeftHandIndex2
									{
										OFFSET 6.426697 0.000000 0.000000
										CHANNELS 3 Xrotation Yrotation Zrotation
										JOINT LeftHandIndex3
										{
											OFFSET 5.337898 0.000000 0.000000
											CHANNELS 3 Xrotation Yrotation Zrotation
											JOINT LeftHandIndex4
											{
												OFFSET 4.409401 0.000000 0.000000
												CHANNELS 3 Xrotation Yrotation Zrotation
												End Site
												{
													OFFSET 0.000000 4.409363 0.014373
												}
											}
										}
									}
								}
								JOINT LeftHandMiddle1
								{
									OFFSET 23.810104 0.000000 0.000000
									CHANNELS 3 Xrotation Yrotation Zrotation
									JOINT LeftHandMiddle2
									{
										OFFSET 7.176498 0.000000 0.000000
										CHANNELS 3 Xrotation Yrotation Zrotation
										JOINT LeftHandMiddle3
										{
											OFFSET 6.774902 0.000000 0.000000
											CHANNELS 3 Xrotation Yrotation Zrotation
											JOINT LeftHandMiddle4
											{
												OFFSET 5.403328 0.000000 0.000000
												CHANNELS 3 Xrotation Yrotation Zrotation
												End Site
												{
													OFFSET -0.027702 5.403244 0.017414
												}
											}
										}
									}
								}
								JOINT LeftHandRing1
								{
									OFFSET 22.908401 -0.839279 -6.020567
									CHANNELS 3 Xrotation Yrotation Zrotation
									JOINT LeftHandRing2
									{
										OFFSET 6.337502 0.000000 0.000000
										CHANNELS 3 Xrotation Yrotation Zrotation
										JOINT LeftHandRing3
										{
											OFFSET 5.779297 0.000000 0.000000
											CHANNELS 3 Xrotation Yrotation Zrotation
											JOINT LeftHandRing4
											{
												OFFSET 4.965698 0.000000 0.000000
												CHANNELS 3 Xrotation Yrotation Zrotation
												End Site
												{
													OFFSET 0.000000 4.965668 0.016186
												}
											}
										}
									}
								}
								JOINT LeftHandPinky1
								{
									OFFSET 20.037003 -1.530319 -10.950146
									CHANNELS 3 Xrotation Yrotation Zrotation
									JOINT LeftHandPinky2
									{
										OFFSET 5.254700 0.000000 0.000000
										CHANNELS 3 Xrotation Yrotation Zrotation
										JOINT LeftHandPinky3
										{
											OFFSET 4.810204 0.000000 0.000000
											CHANNELS 3 Xrotation Yrotation Zrotation
											JOINT LeftHandPinky4
											{
												OFFSET 3.647202 0.000000 0.000000
												CHANNELS 3 Xrotation Yrotation Zrotation
												End Site
												{
													OFFSET 0.000000 3.647186 0.011889
												}
											}
										}
									}
								}
							}
						}
					}
				}
				JOINT RightShoulder
				{
					OFFSET -15.141001 14.495407 -7.737500
					CHANNELS 3 Xrotation Yrotation Zrotation
					JOINT RightArm
					{
						OFFSET -9.308998 -2.777710 0.208500
						CHANNELS 3 Xrotation Yrotation Zrotation
						JOINT RightForeArm
						{
							OFFSET -29.972300 0.000000 0.000000
							CHANNELS 3 Xrotation Yrotation Zrotation
							JOINT RightHand
							{
								OFFSET -26.026505 0.000000 0.000000
								CHANNELS 3 Xrotation Yrotation Zrotation
								JOINT RightHandThumb1
								{
									OFFSET -12.240601 -7.148026 9.207092
									CHANNELS 3 Xrotation Yrotation Zrotation
									JOINT RightHandThumb2
									{
										OFFSET -4.138618 -2.389435 2.389433
										CHANNELS 3 Xrotation Yrotation Zrotation
										JOINT RightHandThumb3
										{
											OFFSET -2.726974 -1.574417 1.574421
											CHANNELS 3 Xrotation Yrotation Zrotation
											JOINT RightHandThumb4
											{
												OFFSET -3.941010 -2.275345 2.275343
												CHANNELS 3 Xrotation Yrotation Zrotation
												End Site
												{
													OFFSET 0.005814 5.087799 0.009927
												}
											}
										}
									}
								}
								JOINT RightHandIndex1
								{
									OFFSET -24.424698 -1.985657 5.953444
									CHANNELS 3 Xrotation Yrotation Zrotation
									JOINT RightHandIndex2
									{
										OFFSET -6.426697 0.000000 0.000000
										CHANNELS 3 Xrotation Yrotation Zrotation
										JOINT RightHandIndex3
										{
											OFFSET -5.337898 0.000000 0.000000
											CHANNELS 3 Xrotation Yrotation Zrotation
											JOINT RightHandIndex4
											{
												OFFSET -4.409401 0.000000 0.000000
												CHANNELS 3 Xrotation Yrotation Zrotation
												End Site
												{
													OFFSET 0.000000 4.409363 0.014408
												}
											}
										}
									}
								}
								JOINT RightHandMiddle1
								{
									OFFSET -23.810097 0.000000 0.000000
									CHANNELS 3 Xrotation Yrotation Zrotation
									JOINT RightHandMiddle2
									{
										OFFSET -7.176498 0.000000 0.000000
										CHANNELS 3 Xrotation Yrotation Zrotation
										JOINT RightHandMiddle3
										{
											OFFSET -6.774902 0.000000 0.000000
											CHANNELS 3 Xrotation Yrotation Zrotation
											JOINT RightHandMiddle4
											{
												OFFSET -5.403328 0.000000 0.000000
												CHANNELS 3 Xrotation Yrotation Zrotation
												End Site
												{
													OFFSET 0.027702 5.403244 0.017457
												}
											}
										}
									}
								}
								JOINT RightHandRing1
								{
									OFFSET -22.908302 -0.839325 -6.020576
									CHANNELS 3 Xrotation Yrotation Zrotation
									JOINT RightHandRing2
									{
										OFFSET -6.337502 0.000000 0.000000
										CHANNELS 3 Xrotation Yrotation Zrotation
										JOINT RightHandRing3
										{
											OFFSET -5.779297 0.000000 0.000000
											CHANNELS 3 Xrotation Yrotation Zrotation
											JOINT RightHandRing4
											{
												OFFSET -4.965698 0.000000 0.000000
												CHANNELS 3 Xrotation Yrotation Zrotation
												End Site
												{
													OFFSET 0.000000 4.965668 0.016226
												}
											}
										}
									}
								}
								JOINT RightHandPinky1
								{
									OFFSET -20.037003 -1.530334 -10.950259
									CHANNELS 3 Xrotation Yrotation Zrotation
									JOINT RightHandPinky2
									{
										OFFSET -5.254700 0.000000 0.000000
										CHANNELS 3 Xrotation Yrotation Zrotation
										JOINT RightHandPinky3
										{
											OFFSET -4.810204 0.000000 0.000000
											CHANNELS 3 Xrotation Yrotation Zrotation
											JOINT RightHandPinky4
											{
												OFFSET -3.647202 0.000000 0.000000
												CHANNELS 3 Xrotation Yrotation Zrotation
												End Site
												{
													OFFSET 0.000000 3.647186 0.011917
												}
											}
										}
									}
								}
							}
						}
					}
				}
			}
		}
	}
	JOINT LeftUpLeg
	{
		OFFSET 15.427100 -6.655098 0.678600
		CHANNELS 3 Xrotation Yrotation Zrotation
		JOINT LeftLeg
		{
			OFFSET 4.081073 -39.591068 13.024000
			CHANNELS 3 Xrotation Yrotation Zrotation
			JOINT LeftFoot
			{
				OFFSET -4.081074 -37.707932 -15.979700
				CHANNELS 3 Xrotation Yrotation Zrotation
				JOINT LeftToeBase
				{
					OFFSET 5.346399 -15.068900 20.645000
					CHANNELS 3 Xrotation Yrotation Zrotation
					JOINT LeftToe_End
					{
						OFFSET 2.754700 0.931300 11.300900
						CHANNELS 3 Xrotation Yrotation Zrotation
						End Site
						{
							OFFSET 0.000000 11.669021 0.000000
						}
					}
				}
			}
		}
	}
	JOINT RightUpLeg
	{
		OFFSET -15.569500 -6.655098 0.678600
		CHANNELS 3 Xrotation Yrotation Zrotation
		JOINT RightLeg
		{
			OFFSET -4.081825 -39.591045 13.023800
			CHANNELS 3 Xrotation Yrotation Zrotation
			JOINT RightFoot
			{
				OFFSET 4.081824 -37.707954 -15.979600
				CHANNELS 3 Xrotation Yrotation Zrotation
				JOINT RightToeBase
				{
					OFFSET -5.346400 -15.068900 20.645000
					CHANNELS 3 Xrotation Yrotation Zrotation
					JOINT RightToe_End
					{
						OFFSET -2.754700 0.931300 11.300900
						CHANNELS 3 Xrotation Yrotation Zrotation
						End Site
						{
							OFFSET 0.000000 11.669021 0.000000
						}
					}
				}
			}
		}
	}
}
MOTION
Frames: 5
Frame Time: 0.033333
0.925712 92.520973 -6.328160 -10.060756 -1.708350 0.722400 -2.289369 -0.438462 -0.679528 -2.538575 -0.821570 -0.412210 -2.543611 -0.829604 -0.358620 -4.742604 0.061469 -0.073286 11.394806 0.260755 -1.947358 0.000000 0.000000 0.000000 -0.553139 12.509624 -9.768874 22.475222 -51.135994 -36.086058 0.000002 -110.606137 -0.000003 -6.184366 -10.939887 45.042837 -9.062614 0.027352 19.620446 3.939047 7.948713 0.746795 -0.579474 1.575010 2.538728 -0.000000 -0.000001 0.000001 -0.000001 -0.000003 -0.000000 -0.000001 -0.000003 -0.000028 -0.000003 0.000005 -0.000022 0.000001 -0.000000 -0.000000 -0.000002 -0.001923 0.015980 0.000008 0.001918 -0.015995 0.000002 0.000010 -0.000017 -0.000000 -0.000002 -0.000001 -0.000001 -0.000003 -0.000001 -0.000002 -0.000003 -0.000028 0.000002 0.000007 -0.000013 -0.000000 -0.000001 -0.000000 -0.018082 4.054255 0.511061 -0.018094 -4.054252 -0.511102 0.000005 0.000003 -0.000017 0.000001 0.000001 0.000001 1.365843 1.819744 8.416335 12.529558 53.503102 45.348840 -0.000027 105.961519 0.000038 -4.684250 8.718324 -49.843876 -5.175639 3.531305 -28.920394 4.637201 -8.634123 -0.225416 -1.273755 0.137310 -2.094866 -0.000002 0.000003 0.000002 0.000000 0.000000 -0.000000 -0.000000 -0.000006 0.000003 -0.000003 -0.000005 0.000009 0.000000 0.000001 -0.000001 0.000000 0.000000 -0.000000 0.000001 -0.000009 0.000003 -0.000003 -0.000004 0.000015 0.000000 -0.000005 -0.000001 0.000001 0.000004 -0.000000 0.000001 -0.000011 0.000004 -0.000003 -0.000008 0.000009 0.000000 -0.000004 -0.000001 0.000000 0.000000 0.000000 0.000006 -0.000011 0.000044 0.000004 0.000010 0.000004 -0.000000 0.000002 0.000001 0.006054 -0.817610 1.277807 23.712433 9.130829 2.081986 -13.002601 1.499933 -6.560350 -0.000008 0.000000 0.000003 -0.000000 0.000001 -0.000000 -2.409770 5.807396 1.628472 25.427321 -9.596034 -4.108003 -12.318591 -8.125041 4.862776 -0.000020 -0.000002 0.000004 0.000000 0.000000 -0.000000 
0.911116 92.487068 -6.151217 -10.314009 -1.837803 0.685020 -2.347477 -0.486535 -0.614984 -2.621356 -0.913369 -0.279844 -2.624362 -0.918279 -0.221894 -4.761109 0.160918 -0.176536 11.453056 0.555470 -2.136303 -0.000000 0.000000 0.000000 -0.553138 12.509622 -9.768873 22.475221 -51.135997 -36.086061 0.000005 -110.606137 -0.000005 -6.184365 -10.939888 45.042833 -9.062616 0.027360 19.620446 3.939049 7.948712 0.746797 -0.579474 1.575013 2.538729 0.000000 0.000001 -0.000000 -0.000001 0.000002 -0.000000 -0.000001 -0.000001 -0.000028 -0.000002 0.000005 -0.000022 0.000001 0.000003 0.000001 -0.000002 -0.001917 0.015981 0.000008 0.001914 -0.015995 0.000003 0.000011 -0.000017 -0.000000 -0.000001 0.000001 -0.000001 0.000002 -0.000000 -0.000002 0.000002 -0.000028 0.000003 0.000006 -0.000013 -0.000000 -0.000002 -0.000001 -0.018081 4.054257 0.511062 -0.018093 -4.054258 -0.511102 0.000005 0.000005 -0.000017 -0.000001 0.000002 0.000000 1.365844 1.819744 8.416334 12.529565 53.503109 45.348833 -0.000026 105.961519 0.000026 -4.684249 8.718322 -49.843876 -5.175637 3.531308 -28.920394 4.637202 -8.634122 -0.225409 -1.273755 0.137308 -2.094863 0.000000 -0.000001 -0.000001 0.000001 0.000000 -0.000000 0.000000 -0.000008 0.000003 -0.000002 -0.000008 0.000009 -0.000000 -0.000000 -0.000001 0.000001 0.000001 0.000001 0.000001 -0.000008 0.000003 -0.000003 -0.000000 0.000016 0.000000 0.000004 0.000001 0.000001 0.000004 0.000001 0.000001 -0.000014 0.000003 -0.000002 -0.000008 0.000010 0.000001 -0.000000 -0.000000 0.000001 0.000000 0.000000 0.000006 -0.000010 0.000045 0.000005 0.000011 0.000003 0.000001 -0.000001 0.000000 0.437655 -0.683984 1.297058 23.746997 9.125110 2.125114 -13.211525 1.525866 -6.619586 -0.000047 -0.000003 -0.000002 -0.000000 -0.000000 -0.000000 -2.033124 5.918364 1.636699 25.471208 -9.597178 -4.039956 -12.489155 -8.110872 4.830304 -0.000020 -0.000003 0.000004 0.000000 -0.000001 -0.000000 
0.889996 92.448509 -5.986551 -10.495298 -1.950265 0.629126 -2.411201 -0.524526 -0.565014 -2.716719 -0.983742 -0.163134 -2.717920 -0.985703 -0.100927 -4.778482 0.239232 -0.235728 11.480805 0.827855 -2.344768 -0.000001 -0.000000 -0.000000 -0.553139 12.509623 -9.768874 22.475224 -51.135994 -36.086065 -0.000012 -110.606137 0.000007 -6.184362 -10.939884 45.042827 -9.062614 0.027357 19.620444 3.939048 7.948710 0.746797 -0.579475 1.575007 2.538730 -0.000000 -0.000001 -0.000000 -0.000000 0.000001 0.000000 -0.000001 -0.000001 -0.000028 -0.000003 0.000008 -0.000022 0.000000 0.000002 0.000001 -0.000002 -0.001917 0.015981 0.000007 0.001915 -0.015994 0.000003 0.000011 -0.000018 0.000000 0.000000 0.000001 -0.000000 0.000001 0.000000 -0.000002 0.000001 -0.000028 0.000003 0.000006 -0.000013 -0.000000 -0.000001 0.000000 -0.018082 4.054260 0.511061 -0.018093 -4.054255 -0.511101 0.000005 0.000004 -0.000015 0.000001 0.000003 -0.000001 1.365846 1.819744 8.416335 12.529560 53.503102 45.348833 -0.000033 105.961519 0.000019 -4.684249 8.718325 -49.843876 -5.175638 3.531301 -28.920394 4.637202 -8.634120 -0.225412 -1.273753 0.137303 -2.094862 -0.000002 -0.000002 -0.000001 0.000000 -0.000003 -0.000001 0.000000 -0.000010 0.000003 -0.000003 -0.000010 0.000010 -0.000000 -0.000000 -0.000001 0.000000 -0.000003 -0.000001 0.000000 -0.000012 0.000001 -0.000004 -0.000010 0.000014 0.000000 -0.000000 0.000001 0.000000 -0.000001 -0.000001 0.000000 -0.000012 0.000003 -0.000003 -0.000013 0.000008 -0.000000 -0.000002 -0.000001 0.000000 -0.000003 -0.000002 0.000005 -0.000013 0.000043 0.000002 0.000007 0.000003 0.000000 0.000001 0.000001 0.763265 -0.620403 1.339764 23.816018 9.120853 2.154631 -13.414841 1.591013 -6.679519 -0.000036 0.000001 -0.000002 -0.000000 -0.000000 0.000000 -1.745077 6.045530 1.666836 25.516844 -9.598057 -3.948337 -12.646831 -8.121554 4.778759 -0.000020 -0.000002 0.000004 -0.000000 0.000000 0.000000 
0.870334 92.404617 -5.846787 -10.566099 -2.040105 0.568013 -2.485950 -0.544638 -0.537245 -2.831237 -1.021409 -0.078521 -2.831105 -1.021144 -0.012622 -4.802111 0.291435 -0.254257 11.410797 1.047515 -2.499480 0.000001 0.000000 0.000000 -0.553142 12.509623 -9.768872 22.475224 -51.135997 -36.086058 0.000000 -110.606137 -0.000005 -6.184366 -10.939885 45.042833 -9.062616 0.027355 19.620446 3.939048 7.948709 0.746797 -0.579476 1.575006 2.538728 -0.000001 0.000001 0.000001 -0.000001 -0.000001 0.000000 -0.000003 -0.000003 -0.000028 -0.000003 0.000009 -0.000022 0.000000 -0.000000 0.000000 -0.000002 -0.001923 0.015981 0.000007 0.001918 -0.015995 0.000003 0.000010 -0.000017 0.000000 -0.000002 -0.000001 -0.000001 -0.000001 0.000000 -0.000002 -0.000001 -0.000028 0.000003 0.000007 -0.000013 0.000000 0.000001 0.000001 -0.018082 4.054255 0.511062 -0.018093 -4.054256 -0.511101 0.000005 0.000005 -0.000015 0.000000 0.000002 0.000001 1.365839 1.819744 8.416334 12.529563 53.503105 45.348833 -0.000007 105.961519 0.000019 -4.684247 8.718326 -49.843876 -5.175640 3.531304 -28.920394 4.637202 -8.634122 -0.225412 -1.273755 0.137304 -2.094866 -0.000001 0.000000 0.000000 -0.000000 -0.000002 -0.000000 0.000000 -0.000012 0.000002 -0.000002 -0.000005 0.000009 0.000001 -0.000004 -0.000002 -0.000000 -0.000002 0.000000 0.000001 -0.000012 0.000003 -0.000003 -0.000008 0.000015 0.000000 -0.000001 0.000000 0.000000 0.000002 -0.000001 0.000001 -0.000011 0.000003 -0.000002 -0.000003 0.000010 0.000001 -0.000002 -0.000001 -0.000000 -0.000002 0.000000 0.000006 -0.000014 0.000045 0.000003 0.000007 0.000003 0.000000 0.000000 0.000000 0.923989 -0.621108 1.372835 23.923625 9.117358 2.200014 -13.600080 1.699122 -6.742715 -0.000060 0.000002 0.000001 -0.000000 -0.000000 0.000000 -1.600224 6.218084 1.692395 25.578852 -9.598558 -3.803017 -12.784622 -8.179566 4.702206 -0.000020 -0.000002 0.000004 0.000000 -0.000001 0.000000 
0.854431 92.359962 -5.734048 -10.535351 -2.119663 0.520894 -2.563374 -0.541680 -0.532082 -2.951086 -1.017838 -0.031716 -2.950164 -1.016318 0.036674 -4.847918 0.322153 -0.242544 11.236798 1.215940 -2.556467 0.000001 0.000000 -0.000000 -0.553142 12.509622 -9.768873 22.475221 -51.135994 -36.086058 -0.000007 -110.606137 -0.000005 -6.184367 -10.939888 45.042833 -9.062614 0.027357 19.620446 3.939049 7.948715 0.746796 -0.579476 1.575008 2.538730 0.000001 0.000003 0.000001 -0.000000 0.000002 -0.000001 -0.000002 0.000003 -0.000027 -0.000003 0.000008 -0.000022 -0.000000 0.000002 0.000001 -0.000002 -0.001920 0.015979 0.000007 0.001915 -0.015995 0.000002 0.000009 -0.000018 -0.000001 0.000002 0.000001 -0.000000 0.000002 -0.000001 -0.000001 0.000002 -0.000028 0.000003 0.000011 -0.000013 -0.000000 -0.000001 0.000000 -0.018081 4.054259 0.511061 -0.018094 -4.054254 -0.511101 0.000005 0.000007 -0.000015 -0.000001 0.000003 -0.000000 1.365842 1.819744 8.416334 12.529564 53.503102 45.348836 -0.000021 105.961519 0.000029 -4.684247 8.718323 -49.843883 -5.175640 3.531302 -28.920390 4.637202 -8.634123 -0.225408 -1.273754 0.137308 -2.094866 0.000001 -0.000001 -0.000001 -0.000001 -0.000000 0.000001 -0.000000 -0.000012 0.000002 -0.000002 -0.000008 0.000008 -0.000001 -0.000001 -0.000001 -0.000001 0.000000 0.000000 -0.000001 -0.000010 0.000003 -0.000004 -0.000008 0.000015 -0.000000 -0.000003 -0.000002 -0.000001 0.000002 0.000001 -0.000000 -0.000012 0.000002 -0.000002 -0.000007 0.000009 -0.000001 -0.000001 -0.000001 -0.000001 -0.000000 0.000000 0.000004 -0.000016 0.000045 0.000004 0.000007 0.000003 -0.000000 0.000002 0.000000 0.938088 -0.617414 1.372947 24.043818 9.113449 2.289617 -13.759092 1.792040 -6.819766 -0.000004 -0.000001 -0.000000 0.000000 0.000000 0.000000 -1.591282 6.435770 1.690020 25.659873 -9.598958 -3.607227 -12.901697 -8.272565 4.606031 -0.000020 -0.000002 0.000004 0.000000 0.000000 0.000000 
